<?xml version="1.0" encoding="UTF-8" standalone="no"?>
<svg
   version="1.1"
   viewBox="0 0 128 128"
   height="128"
   width="128"
   id="svg18"
   xmlns="http://www.w3.org/2000/svg"
   xmlns:svg="http://www.w3.org/2000/svg">
  <defs
     id="defs22" />
  <g
     style="display:inline;opacity:1"
     id="g8">
    <g
       style="fill:#800000;fill-opacity:1;stroke:#ffffff;stroke-width:1.62100744;stroke-linecap:round;stroke-miterlimit:4;stroke-opacity:1;stroke-dasharray:none;display:inline"
       transform="matrix(0.6778654,0,0,0.56141828,-241.07537,-247.27712)"
       id="g2" />
    <path
       d="M 64.000003,128 C 120,96.000003 120,96.000003 120,16 95.999998,16 87.999999,16 64.000003,-2.190498e-6 M 64.000003,128 C 7.9999974,96.000003 7.9999974,96.000003 7.9999974,16 32.000001,16 39.999999,16 64.000003,-2.190498e-6"
       style="stroke-opacity:1;stroke-dasharray:none;stroke-miterlimit:4;stroke-linejoin:round;stroke-linecap:round;stroke-width:0.999999;stroke:#ffffff;fill-rule:nonzero;fill-opacity:1;fill:orangered;"
       id="path4" />
  </g>
  <g
     transform="translate(-17.872548,-17.32535)"
     style="display:inline"
     id="g16">
    <ellipse
       transform="matrix(1.3333335,0,0,1.3333334,-42.290862,-31.108461)"
       ry="12"
       rx="11.999999"
       cy="81.325356"
       cx="102.12254"
       style="fill:none;stroke:#ffffff;stroke-width:5.99999952;stroke-miterlimit:4;stroke-opacity:1;stroke-dasharray:none;display:inline;"
       id="ellipse10" />
    <g
       style="fill:#ffffff;fill-opacity:1;stroke:#ffffff;stroke-width:1.99999996999999996;stroke-miterlimit:4;stroke-opacity:1;stroke-dasharray:none"
       transform="scale(1.0018026,0.99820067)"
       id="g14">
      <path
         d="m 81.72523,81.471945 c 0,11.019828 -4.991003,16.028841 -15.97121,16.028841 -10.980207,0 -15.97121,-5.009013 -15.97121,-16.028841 l 0,-24.043262 7.985605,0 0,24.043262 c 0,7.012618 0.9982,8.014421 7.985605,8.014421 6.987404,0 7.985605,-1.001803 7.985605,-8.014421 l 0,-24.043262 7.985605,0 z"
         style="fill:#ffffff;stroke:#ffffff;stroke-width:0;stroke-linecap:square;stroke-linejoin:miter;stroke-miterlimit:4;stroke-dasharray:none;"
         id="path12" />
    </g>
  </g>
  <text
     xml:space="preserve"
     style="font-style:normal;font-variant:normal;font-weight:normal;font-stretch:normal;font-size:25.9418px;line-height:1.25;font-family:sans-serif;-inkscape-font-specification:'sans-serif, Normal';font-variant-ligatures:normal;font-variant-caps:normal;font-variant-numeric:normal;font-variant-east-asian:normal;fill:#ffffff;fill-opacity:1;stroke:none;stroke-width:0.436797"
     x="43.764069"
     y="36.043163"
     id="text3476"
     transform="matrix(1.0734075,0.03042782,-0.02875239,0.93079761,0,0)"><tspan
       id="tspan3474"
       x="43.764069"
       y="36.043163"
       style="font-style:normal;font-variant:normal;font-weight:normal;font-stretch:normal;font-size:25.9418px;font-family:sans-serif;-inkscape-font-specification:'sans-serif, Normal';font-variant-ligatures:normal;font-variant-caps:normal;font-variant-numeric:normal;font-variant-east-asian:normal;stroke-width:0.436797">🦆</tspan></text>
</svg>
